<svg width="20" height="15" viewBox="0 0 214 55" fill="none" xmlns="http://www.w3.org/2000/svg">
    <path
        d="M106.566 22.0373L97.6028 29.4264C97.6028 29.4368 97.6002 29.4522 97.5949 29.4731C97.5898 29.4938 97.5871 29.5089 97.5871 29.5196V37.0018C97.5871 37.272 97.6858 37.5061 97.8833 37.7033C98.0807 37.9005 98.3145 37.9998 98.5847 37.9998H104.57V32.0138H108.561V38H114.547C114.817 38 115.051 37.901 115.248 37.7033C115.446 37.5063 115.545 37.272 115.545 37.0018V29.5196C115.545 29.4781 115.539 29.4468 115.529 29.4264L106.566 22.0373Z"
        fill="white" />
    <path
        d="M118.958 27.7428L115.545 24.9057V18.5457C115.545 18.4003 115.498 18.2807 115.404 18.1872C115.311 18.0937 115.191 18.047 115.046 18.047H112.053C111.907 18.047 111.788 18.0937 111.694 18.1872C111.601 18.2807 111.554 18.4004 111.554 18.5457V21.5854L107.751 18.4053C107.418 18.1351 107.023 18 106.566 18C106.109 18 105.714 18.1351 105.381 18.4053L94.1732 27.7428C94.0693 27.8258 94.0124 27.9375 94.0018 28.0778C93.9912 28.218 94.0275 28.3405 94.1108 28.4443L95.0773 29.5979C95.1605 29.6914 95.2695 29.7485 95.4046 29.7694C95.5294 29.7799 95.6541 29.7434 95.7789 29.6603L106.566 20.6657L117.353 29.6603C117.436 29.7328 117.545 29.769 117.68 29.769H117.727C117.862 29.7485 117.971 29.6909 118.054 29.5977L119.021 28.4443C119.104 28.3402 119.141 28.218 119.13 28.0776C119.119 27.9376 119.062 27.8259 118.958 27.7428Z"
        fill="white" />
</svg>
