<svg width="10" height="14" viewBox="0 0 10 14" fill="none" xmlns="http://www.w3.org/2000/svg">
<path d="M8.92174 7.35486L2.36495 13.7343C2.30471 13.7929 2.22301 13.8259 2.13782 13.8259C2.05264 13.8259 1.97094 13.7929 1.9107 13.7343L0.0940664 11.9665C0.0338367 11.9079 0 11.8284 0 11.7456C0 11.6627 0.0338367 11.5832 0.0940664 11.5246L4.83368 6.91293L0.0940664 2.30127C0.0338367 2.24266 0 2.16318 0 2.0803C0 1.99742 0.0338367 1.91794 0.0940664 1.85934L1.9107 0.0915247C1.97094 0.0329221 2.05264 0 2.13782 0C2.22301 0 2.30471 0.0329221 2.36495 0.0915247L8.92174 6.471C8.9814 6.52903 9.02872 6.59793 9.06101 6.67375C9.09329 6.74958 9.10991 6.83085 9.10991 6.91293C9.10991 6.99501 9.09329 7.07628 9.06101 7.15211C9.02872 7.22794 8.9814 7.29683 8.92174 7.35486Z" fill="black"/>
</svg>
