<svg width="14" height="10" viewBox="0 0 14 10" fill="none" xmlns="http://www.w3.org/2000/svg" transform="rotate(90)">
<path d="M6.30026 9.13876L0.0891047 2.42247C0.0320482 2.36077 -5.72205e-06 2.27708 -5.72205e-06 2.18983C-5.72205e-06 2.10257 0.0320482 2.01888 0.0891047 1.95718L1.81027 0.0963546C1.86733 0.0346598 1.94472 0 2.02541 0C2.1061 0 2.18349 0.0346598 2.24054 0.0963546L6.73053 4.95125L11.2205 0.0963546C11.2776 0.0346598 11.355 0 11.4356 0C11.5163 0 11.5937 0.0346598 11.6508 0.0963546L13.3719 1.95718C13.429 2.01888 13.4611 2.10257 13.4611 2.18983C13.4611 2.27708 13.429 2.36077 13.3719 2.42247L7.1608 9.13876C7.1043 9.19987 7.03722 9.24834 6.96339 9.28141C6.88957 9.31448 6.81044 9.3315 6.73053 9.3315C6.65062 9.3315 6.57149 9.31448 6.49766 9.28141C6.42383 9.24834 6.35676 9.19987 6.30026 9.13876Z" fill="currentColor"/>
</svg>
