<svg width="10" height="10" viewBox="0 0 10 10" fill="none" xmlns="http://www.w3.org/2000/svg">
<path fill-rule="evenodd" clip-rule="evenodd" d="M1.18462 9.99231H0.753846C0.653846 9.88319 0.530769 9.88319 0.323077 9.66495C0.223077 9.55583 0 9.11934 0 8.9089C0 8.58154 0.223077 8.24638 0.323077 8.14505L3.43846 4.98836L0.330769 1.83946C0.230769 1.73813 0.00769231 1.40298 0.00769231 1.08341C0.00769231 0.865169 0.230769 0.537807 0.330769 0.319567C0.653846 0.101326 0.861538 0 1.18462 0C1.50769 0 1.71538 0.101326 1.93846 0.319567L5.05385 3.35935L8.06923 0.319567C8.27692 0.101326 8.6 0 8.82308 0C9.14615 0 9.45385 0.101326 9.67692 0.319567C9.88462 0.537807 10 0.865169 10 1.08341C10 1.40298 9.87692 1.73034 9.67692 1.83946L6.56154 4.99615L9.67692 8.15285C9.88462 8.25418 10 8.58933 10 8.91669C10 9.12714 9.87692 9.55583 9.67692 9.67274C9.57692 9.89098 9.45385 9.89098 9.35385 10.0001H8.5C8.27692 9.89098 8.17692 9.89098 8.06923 9.67274L5.05385 6.63296L1.93846 9.67274C1.83846 9.89098 1.71538 9.89098 1.61538 10.0001H1.18462V9.99231Z" fill="#595959"/>
</svg>
