<svg width="13" height="16" viewBox="0 0 13 16" fill="none" xmlns="http://www.w3.org/2000/svg">
<path d="M10.7031 0C11.4592 0 12.0732 0.622181 12.0732 1.3584V15.0908C12.0732 15.7187 11.7178 16 11.3535 16C11.1381 16 10.9239 15.9035 10.7109 15.7217L6.57129 12.1963C6.44265 12.0866 6.25871 12.0234 6.06738 12.0234C5.8759 12.0235 5.69169 12.0868 5.56348 12.1963L1.41016 15.7227C1.19798 15.9039 0.967745 16 0.751953 16C0.523885 15.9999 0.310815 15.8907 0.178711 15.7012C0.0683597 15.5426 0 15.337 0 15.0908V1.3584C0 0.622181 0.66386 0 1.41992 0H10.7031Z" fill="currentColor"/>
</svg>
